<svg id="visual" viewBox="0 0 900 600" width="900" height="600" xmlns="http://www.w3.org/2000/svg" xmlns:xlink="http://www.w3.org/1999/xlink" version="1.1"><rect x="0" y="0" width="900" height="600" fill="#1a1d22"></rect><g transform="translate(18.02040088324958 -7.5346339057758485)"><path d="M63.3 -101.8C99.5 -75.2 158.5 -87.2 176.6 -73.1C194.8 -59 172.1 -18.8 146.2 6.7C120.3 32.2 91.1 43 78.6 81.6C66.1 120.2 70.2 186.8 52.1 204.5C33.9 222.3 -6.6 191.3 -40.8 167.9C-74.9 144.6 -102.8 128.9 -120.4 105.9C-138 82.8 -145.2 52.4 -168.9 12.7C-192.6 -26.9 -232.7 -75.8 -214.7 -90.9C-196.7 -106.1 -120.5 -87.5 -75 -109.9C-29.6 -132.3 -14.8 -195.7 -0.6 -194.7C13.5 -193.7 27 -128.4 63.3 -101.8" fill="#2f796e"></path></g></svg>