<svg id="visual" viewBox="0 0 960 540" width="960" height="540" xmlns="http://www.w3.org/2000/svg" xmlns:xlink="http://www.w3.org/1999/xlink" version="1.1"><rect x="0" y="0" width="960" height="540" fill="#1a1d22"></rect><g transform="translate(-37.85363015730749 -3.117338828246943)"><path d="M157.1 -226.9C201.7 -246.4 234.7 -200.4 262.4 -151.7C290.1 -103 312.5 -51.5 267.9 -25.7C223.3 0 111.7 0 79.7 41.3C47.7 82.6 95.3 165.1 95.3 199.6C95.3 234.1 47.7 220.6 -1.5 223.2C-50.7 225.8 -101.3 244.5 -144.8 235.1C-188.2 225.7 -224.4 188.1 -216.4 144.2C-208.4 100.3 -156.2 50.2 -121 20.3C-85.8 -9.5 -67.6 -19 -59.7 -35.3C-51.7 -51.6 -54.1 -74.7 -45.9 -76.3C-37.7 -77.9 -18.8 -58 18.7 -90.4C56.2 -122.8 112.5 -207.5 157.1 -226.9" fill="#38b09d"></path></g></svg>