<!--?xml version="1.0" standalone="no"?-->
              <svg id="sw-js-blob-svg" viewBox="0 0 100 100" xmlns="http://www.w3.org/2000/svg" version="1.1">
                    <defs> 
                        <linearGradient id="sw-gradient" x1="0" x2="1" y1="1" y2="0">
                            <stop id="stop1" stop-color="rgba(26, 29, 34, 1)" offset="0%"></stop>
                            <stop id="stop2" stop-color="rgba(56, 176, 157, 1)" offset="100%"></stop>
                        </linearGradient>
                    </defs>
                <path fill="url(#sw-gradient)" d="M14.7,-28.4C19.2,-22.9,23,-19.2,28.2,-14.8C33.5,-10.3,40.1,-5.2,41.4,0.8C42.7,6.7,38.7,13.4,33.8,18.3C28.8,23.2,22.9,26.3,17.1,30.3C11.3,34.2,5.7,39,-0.7,40.2C-7.1,41.5,-14.3,39.3,-21.5,36.2C-28.6,33,-35.8,28.9,-38.4,22.7C-41,16.5,-39,8.3,-39,0C-39,-8.3,-41.1,-16.6,-38,-21.9C-34.9,-27.2,-26.6,-29.5,-19.4,-33.5C-12.3,-37.5,-6.1,-43.1,-0.5,-42.3C5.1,-41.4,10.2,-34,14.7,-28.4Z" width="100%" height="100%" transform="translate(50 50)" style="transition: all 0.3s ease 0s;" stroke-width="0" stroke="url(#sw-gradient)"></path>
              </svg>